<?xml version="1.0" encoding="utf-8"?>
<!-- Generator: Adobe Illustrator 23.0.1, SVG Export Plug-In . SVG Version: 6.00 Build 0)  -->
<svg version="1.1" id="Layer_1" xmlns="http://www.w3.org/2000/svg" xmlns:xlink="http://www.w3.org/1999/xlink" x="0px" y="0px"
	 viewBox="0 0 64 64" style="enable-background:new 0 0 64 64;" xml:space="preserve">
<style type="text/css">
	.st0{fill:#231F20;}
</style>
<path id="XMLID_1049_" class="st0" d="M54,8V0H12C6.49,0,2,4.49,2,10v44c0,5.51,4.49,10,10,10h50V8H54z M6,10c0-3.31,2.69-6,6-6h38
	v40H12c-2.25,0-4.33,0.75-6,2V10z M12,60c-3.31,0-6-2.69-6-6s2.69-6,6-6h42V12h4v40H20v4h38v4H12z"/>
</svg>
