<svg xmlns="http://www.w3.org/2000/svg" viewBox="0 0 32 32"><defs><style>.cls-1{fill:#231f20;}</style></defs><g id="setting"><path class="cls-1" d="M27.92,18.46l-1.14-.92a.86.86,0,0,1-.31-.65V15.2a.83.83,0,0,1,.31-.65l1.11-.89A2.86,2.86,0,0,0,28.54,10L27.42,8.12A2.76,2.76,0,0,0,24.21,6.9l-1.82.58a.73.73,0,0,1-.64-.09l-1.23-.81A.8.8,0,0,1,20.16,6L19.92,4.4A2.77,2.77,0,0,0,17.18,2H14.93a2.79,2.79,0,0,0-2.77,2.51L12,6a.8.8,0,0,1-.41.63L10,7.48a.79.79,0,0,1-.67,0L8.08,7A2.75,2.75,0,0,0,4.62,8.1L3.48,10a2.84,2.84,0,0,0,.57,3.64L5.4,14.75a.87.87,0,0,1,.29.62l0,1.27a.87.87,0,0,1-.28.65L4,18.61a2.85,2.85,0,0,0-.57,3.52l1,1.84a2.77,2.77,0,0,0,3.42,1.22l1.62-.63a.73.73,0,0,1,.66.05l1.4.84a.76.76,0,0,1,.38.55l.32,1.66A2.81,2.81,0,0,0,15,29.94h2.15a2.79,2.79,0,0,0,2.75-2.39l.26-1.65a.85.85,0,0,1,.4-.6l1.3-.74a.78.78,0,0,1,.65,0l1.64.63a2.76,2.76,0,0,0,3.37-1.2l1.08-1.83A2.86,2.86,0,0,0,27.92,18.46ZM26.85,21.1l-1.08,1.83a.78.78,0,0,1-.94.34l-1.64-.63a2.77,2.77,0,0,0-2.35.19l-1.3.74a2.81,2.81,0,0,0-1.39,2l-.26,1.66a.78.78,0,0,1-.77.69H15a.79.79,0,0,1-.77-.66l-.32-1.66a2.81,2.81,0,0,0-1.33-1.89l-1.4-.84a2.73,2.73,0,0,0-1.41-.39,2.91,2.91,0,0,0-1,.19l-1.62.64a.77.77,0,0,1-1-.35l-1-1.84a.84.84,0,0,1,.16-1l1.48-1.32a2.87,2.87,0,0,0,.94-2.17l0-1.27a2.9,2.9,0,0,0-1-2.11L5.36,12.08A.85.85,0,0,1,5.19,11L6.33,9.14a.76.76,0,0,1,1-.32l1.25.53A2.72,2.72,0,0,0,11,9.23l1.61-.89A2.81,2.81,0,0,0,14,6.17l.16-1.46A.79.79,0,0,1,14.93,4h2.24a.79.79,0,0,1,.78.7l.23,1.61a2.85,2.85,0,0,0,1.24,2l1.23.8A2.72,2.72,0,0,0,23,9.38l1.82-.57a.76.76,0,0,1,.89.34L26.83,11a.86.86,0,0,1-.19,1.09L25.53,13a2.84,2.84,0,0,0-1.06,2.22v1.69a2.81,2.81,0,0,0,1.05,2.2l1.14.92A.86.86,0,0,1,26.85,21.1Z"/><path class="cls-1" d="M16,11a5,5,0,1,0,5,5A5,5,0,0,0,16,11Zm0,8a3,3,0,1,1,3-3A3,3,0,0,1,16,19.07Z"/></g></svg>