<svg xmlns="http://www.w3.org/2000/svg" viewBox="0 0 32 32"><title>70-Trash</title><g id="_70-Trash" data-name="70-Trash"><path d="M29.89,6.55l-1-2A1,1,0,0,0,28,4H21V2a2,2,0,0,0-2-2H13a2,2,0,0,0-2,2V4H4a1,1,0,0,0-.89.55l-1,2A1,1,0,0,0,3,8H5V30a2,2,0,0,0,.47,1.41A2,2,0,0,0,7,32H25a2,2,0,0,0,2-2V8h2a1,1,0,0,0,.89-1.45ZM13,2h6V4H13ZM25,30H7V8H25Z"/><path d="M17,26V10a2,2,0,0,0-2,2l.06,14H15v2A2,2,0,0,0,17,26Z"/><path d="M22,26V10a2,2,0,0,0-2,2l.06,14H20v2A2,2,0,0,0,22,26Z"/><path d="M12,26V10a2,2,0,0,0-2,2l.06,14H10v2A2,2,0,0,0,12,26Z"/></g></svg>